<svg xmlns="http://www.w3.org/2000/svg" version="1.1" xmlns:xlink="http://www.w3.org/1999/xlink" xmlns:svgjs="http://svgjs.dev/svgjs" width="1920" height="1080" preserveAspectRatio="none" viewBox="0 0 1920 1080"><g mask="url(&quot;#SvgjsMask1438&quot;)" fill="none"><rect width="1920" height="1080" x="0" y="0" fill="rgba(0, 0, 0, 1)"></rect><g transform="translate(0, 0)" stroke-linecap="round" stroke="url(&quot;#SvgjsLinearGradient1439&quot;)"><path d="M519 324.27 L519 755.73" stroke-width="15.75"></path><path d="M540 353.5 L540 726.5" stroke-width="15.75"></path><path d="M561 499.02 L561 580.98" stroke-width="15.75"></path><path d="M582 370.12 L582 709.88" stroke-width="15.75"></path><path d="M603 441.06 L603 638.94" stroke-width="15.75"></path><path d="M624 499.52 L624 580.48" stroke-width="15.75"></path><path d="M645 346.53 L645 733.47" stroke-width="15.75"></path><path d="M666 435.11 L666 644.89" stroke-width="15.75"></path><path d="M687 391.73 L687 688.27" stroke-width="15.75"></path><path d="M708 463.06 L708 616.94" stroke-width="15.75"></path><path d="M729 311.51 L729 768.49" stroke-width="15.75"></path><path d="M750 455.14 L750 624.86" stroke-width="15.75"></path><path d="M771 345.59 L771 734.41" stroke-width="15.75"></path><path d="M792 364.9 L792 715.1" stroke-width="15.75"></path><path d="M813 320.63 L813 759.37" stroke-width="15.75"></path><path d="M834 356.46 L834 723.54" stroke-width="15.75"></path><path d="M855 434.84 L855 645.16" stroke-width="15.75"></path><path d="M876 404.74 L876 675.26" stroke-width="15.75"></path><path d="M897 357.02 L897 722.98" stroke-width="15.75"></path><path d="M918 422.54 L918 657.46" stroke-width="15.75"></path><path d="M939 355.66 L939 724.34" stroke-width="15.75"></path><path d="M960 339.18 L960 740.82" stroke-width="15.75"></path><path d="M981 502.18 L981 577.83" stroke-width="15.75"></path><path d="M1002 444.5 L1002 635.5" stroke-width="15.75"></path><path d="M1023 348.03 L1023 731.97" stroke-width="15.75"></path><path d="M1044 388.74 L1044 691.26" stroke-width="15.75"></path><path d="M1065 357.06 L1065 722.94" stroke-width="15.75"></path><path d="M1086 312.54 L1086 767.46" stroke-width="15.75"></path><path d="M1107 341.05 L1107 738.95" stroke-width="15.75"></path><path d="M1128 377.12 L1128 702.88" stroke-width="15.75"></path><path d="M1149 450.92 L1149 629.08" stroke-width="15.75"></path><path d="M1170 510.18 L1170 569.82" stroke-width="15.75"></path><path d="M1191 403.47 L1191 676.53" stroke-width="15.75"></path><path d="M1212 310.5 L1212 769.5" stroke-width="15.75"></path><path d="M1233 474.81 L1233 605.18" stroke-width="15.75"></path><path d="M1254 333.82 L1254 746.18" stroke-width="15.75"></path><path d="M1275 362.26 L1275 717.74" stroke-width="15.75"></path><path d="M1296 400.96 L1296 679.04" stroke-width="15.75"></path><path d="M1317 441.33 L1317 638.67" stroke-width="15.75"></path><path d="M1338 444.47 L1338 635.53" stroke-width="15.75"></path><path d="M1359 398.28 L1359 681.72" stroke-width="15.75"></path><path d="M1380 490.74 L1380 589.26" stroke-width="15.75"></path><path d="M1401 445.88 L1401 634.12" stroke-width="15.75"></path></g></g><defs><mask id="SvgjsMask1438"><rect width="1920" height="1080" fill="#ffffff"></rect></mask><linearGradient x1="499.2" y1="540" x2="1420.8" y2="540" gradientUnits="userSpaceOnUse" id="SvgjsLinearGradient1439"><stop stop-color="#3a7cc3" offset="0"></stop><stop stop-color="#dd1133" offset="1"></stop></linearGradient></defs></svg>